<svg width="561" height="561" viewBox="0 0 561 561" fill="none" xmlns="http://www.w3.org/2000/svg">
<path d="M415.514 336.883L393.123 324.248L426.818 264.539C431.286 256.621 432.426 247.253 429.986 238.494C427.547 229.736 421.728 222.306 413.811 217.837L354.102 184.143L366.737 161.752C372.323 151.855 373.747 140.144 370.698 129.196C367.649 118.249 360.376 108.96 350.479 103.375C340.581 97.7901 328.871 96.3653 317.923 99.4144C306.975 102.464 297.687 109.737 292.102 119.634L279.466 142.025L219.758 108.33C211.84 103.862 202.471 102.722 193.713 105.162C184.955 107.601 177.524 113.419 173.056 121.337L141.046 178.061L163.437 190.696C185.828 203.331 193.632 231.352 180.996 253.743C168.361 276.134 140.34 283.938 117.949 271.303L95.5586 258.667L63.5488 315.39C59.0807 323.308 57.9408 332.677 60.3801 341.435C62.8194 350.193 68.638 357.624 76.5559 362.092L133.279 394.102L145.915 371.711C158.55 349.32 186.571 341.516 208.962 354.151C231.352 366.787 239.157 394.808 226.521 417.199L213.886 439.589L270.609 471.599C278.527 476.067 287.895 477.207 296.653 474.768C305.412 472.328 312.842 466.51 317.31 458.592L351.005 398.883L373.396 411.519C383.293 417.104 395.004 418.529 405.951 415.48C416.899 412.431 426.187 405.157 431.773 395.26C437.358 385.363 438.783 373.652 435.734 362.704C432.684 351.756 425.411 342.468 415.514 336.883Z" fill="#F6BF22" fill-opacity="0.18"/>
</svg>
