<svg width="34" height="34" viewBox="0 0 34 34" fill="none" xmlns="http://www.w3.org/2000/svg">
<path d="M16.9999 18.9835L10.0582 25.9251C9.7985 26.1849 9.46794 26.3147 9.06655 26.3147C8.66516 26.3147 8.33461 26.1849 8.07489 25.9251C7.81516 25.6654 7.6853 25.3349 7.6853 24.9335C7.6853 24.5321 7.81516 24.2015 8.07489 23.9418L15.0166 17.0001L8.07489 10.0585C7.81516 9.79874 7.6853 9.46819 7.6853 9.0668C7.6853 8.66541 7.81516 8.33485 8.07489 8.07513C8.33461 7.81541 8.66516 7.68555 9.06655 7.68555C9.46794 7.68555 9.7985 7.81541 10.0582 8.07513L16.9999 15.0168L23.9416 8.07513C24.2013 7.81541 24.5318 7.68555 24.9332 7.68555C25.3346 7.68555 25.6652 7.81541 25.9249 8.07513C26.1846 8.33485 26.3145 8.66541 26.3145 9.0668C26.3145 9.46819 26.1846 9.79874 25.9249 10.0585L18.9832 17.0001L25.9249 23.9418C26.1846 24.2015 26.3145 24.5321 26.3145 24.9335C26.3145 25.3349 26.1846 25.6654 25.9249 25.9251C25.6652 26.1849 25.3346 26.3147 24.9332 26.3147C24.5318 26.3147 24.2013 26.1849 23.9416 25.9251L16.9999 18.9835Z" fill="black"/>
</svg>
