<svg width="37" height="37" viewBox="0 0 37 37" fill="none" xmlns="http://www.w3.org/2000/svg">
<path fill-rule="evenodd" clip-rule="evenodd" d="M19.7003 24.2256C19.276 24.6494 18.701 24.8874 18.1013 24.8874C17.5017 24.8874 16.9266 24.6494 16.5024 24.2256L7.9676 15.6939C7.54333 15.2694 7.30506 14.6938 7.3052 14.0936C7.30535 13.4935 7.54389 12.918 7.96836 12.4937C8.39283 12.0694 8.96845 11.8312 9.5686 11.8313C10.1687 11.8314 10.7443 12.07 11.1685 12.4945L18.1013 19.4273L25.0342 12.4945C25.4607 12.0821 26.0322 11.8537 26.6254 11.8586C27.2187 11.8635 27.7863 12.1012 28.206 12.5205C28.6258 12.9398 28.864 13.5072 28.8694 14.1005C28.8748 14.6938 28.6471 15.2654 28.2351 15.6924L19.7018 24.2271L19.7003 24.2256Z" fill="currentColor"/>
</svg>
