<svg width="34" height="34" viewBox="0 0 34 34" fill="none" xmlns="http://www.w3.org/2000/svg">
<rect width="34" height="34" fill="none"/>
<path d="M30.8678 2.09668L31.7036 2.93252C32.8553 4.08568 32.6811 6.12993 31.3112 7.49843L14.0746 24.735L8.4901 26.7778C7.78885 27.0357 7.10601 26.7013 6.96718 26.0341C6.92041 25.792 6.9425 25.5417 7.03093 25.3116L9.11343 19.6789L26.3018 2.4891C27.6718 1.1206 29.716 0.943515 30.8678 2.09668ZM13.3223 3.81085C13.5084 3.81085 13.6926 3.84749 13.8645 3.91869C14.0364 3.98988 14.1925 4.09423 14.3241 4.22578C14.4556 4.35733 14.56 4.5135 14.6312 4.68538C14.7024 4.85726 14.739 5.04148 14.739 5.22752C14.739 5.41355 14.7024 5.59777 14.6312 5.76965C14.56 5.94153 14.4556 6.0977 14.3241 6.22925C14.1925 6.3608 14.0364 6.46515 13.8645 6.53635C13.6926 6.60754 13.5084 6.64418 13.3223 6.64418H7.65568C6.90423 6.64418 6.18356 6.94269 5.65221 7.47405C5.12086 8.0054 4.82235 8.72607 4.82235 9.47752V26.4775C4.82235 27.229 5.12086 27.9496 5.65221 28.481C6.18356 29.0123 6.90423 29.3108 7.65568 29.3108H24.6557C25.4071 29.3108 26.1278 29.0123 26.6592 28.481C27.1905 27.9496 27.489 27.229 27.489 26.4775V20.8108C27.489 20.4351 27.6383 20.0748 27.9039 19.8091C28.1696 19.5434 28.53 19.3942 28.9057 19.3942C29.2814 19.3942 29.6417 19.5434 29.9074 19.8091C30.1731 20.0748 30.3223 20.4351 30.3223 20.8108V26.4775C30.3223 27.9804 29.7253 29.4217 28.6626 30.4845C27.5999 31.5472 26.1586 32.1442 24.6557 32.1442H7.65568C6.15279 32.1442 4.71145 31.5472 3.64874 30.4845C2.58604 29.4217 1.98901 27.9804 1.98901 26.4775V9.47752C1.98901 7.97462 2.58604 6.53328 3.64874 5.47058C4.71145 4.40787 6.15279 3.81085 7.65568 3.81085H13.3223Z" fill="#979797" fill-opacity="0.6"/>
</svg>
