<svg width="70" height="70" viewBox="0 0 70 70" fill="none" xmlns="http://www.w3.org/2000/svg">
<circle cx="35" cy="35" r="35" transform="rotate(-180 35 35)" fill="black"/>
<path fill-rule="evenodd" clip-rule="evenodd" d="M25.1146 36.494C24.5942 35.9729 24.3019 35.2667 24.3019 34.5303C24.3019 33.794 24.5942 33.0877 25.1146 32.5667L35.5922 22.0854C36.1135 21.5643 36.8204 21.2717 37.5574 21.2719C38.2944 21.2721 39.0012 21.565 39.5222 22.0863C40.0433 22.6076 40.3359 23.3145 40.3357 24.0515C40.3355 24.7885 40.0426 25.4953 39.5213 26.0163L31.0073 34.5303L39.5213 43.0443C40.0277 43.5681 40.3081 44.2699 40.3021 44.9985C40.2962 45.7271 40.0043 46.4242 39.4893 46.9396C38.9743 47.455 38.2775 47.7476 37.549 47.7543C36.8204 47.761 36.1184 47.4812 35.594 46.9753L25.1127 36.4958L25.1146 36.494Z" fill="white"/>
</svg>
