<svg width="24" height="24" viewBox="0 0 24 24" fill="none" xmlns="http://www.w3.org/2000/svg">
<path d="M22.5 21C22.8852 21.0002 23.2556 21.1486 23.5344 21.4144C23.8132 21.6802 23.979 22.0431 23.9975 22.4279C24.016 22.8127 23.8858 23.1898 23.6338 23.4812C23.3818 23.7726 23.0274 23.9558 22.644 23.993L22.5 24H6.5C6.11478 23.9998 5.74441 23.8514 5.46561 23.5856C5.18682 23.3198 5.02099 22.9569 5.00248 22.5721C4.98396 22.1873 5.11419 21.8102 5.36618 21.5188C5.61816 21.2274 5.97258 21.0442 6.356 21.007L6.5 21H22.5ZM22.5 14C22.8978 14 23.2794 14.158 23.5607 14.4393C23.842 14.7206 24 15.1022 24 15.5C24 15.8978 23.842 16.2794 23.5607 16.5607C23.2794 16.842 22.8978 17 22.5 17H6.5C6.10218 17 5.72064 16.842 5.43934 16.5607C5.15804 16.2794 5 15.8978 5 15.5C5 15.1022 5.15804 14.7206 5.43934 14.4393C5.72064 14.158 6.10218 14 6.5 14H22.5ZM22.5 7C22.8978 7 23.2794 7.15804 23.5607 7.43934C23.842 7.72064 24 8.10218 24 8.5C24 8.89782 23.842 9.27936 23.5607 9.56066C23.2794 9.84196 22.8978 10 22.5 10H6.5C6.10218 10 5.72064 9.84196 5.43934 9.56066C5.15804 9.27936 5 8.89782 5 8.5C5 8.10218 5.15804 7.72064 5.43934 7.43934C5.72064 7.15804 6.10218 7 6.5 7H22.5Z" fill="white"/>
</svg>
