<svg width="34" height="34" viewBox="0 0 34 34" fill="none" xmlns="http://www.w3.org/2000/svg">
<path d="M17 15.5833V22.6667M17 29.75C15.3256 29.75 13.6677 29.4202 12.1208 28.7795C10.5739 28.1387 9.16834 27.1996 7.98439 26.0156C6.80044 24.8317 5.86128 23.4261 5.22054 21.8792C4.57979 20.3323 4.25 18.6744 4.25 17C4.25 15.3256 4.57979 13.6677 5.22054 12.1208C5.86128 10.5739 6.80044 9.16834 7.98439 7.98439C9.16834 6.80044 10.5739 5.86128 12.1208 5.22054C13.6677 4.57979 15.3256 4.25 17 4.25C20.3815 4.25 23.6245 5.5933 26.0156 7.98439C28.4067 10.3755 29.75 13.6185 29.75 17C29.75 20.3815 28.4067 23.6245 26.0156 26.0156C23.6245 28.4067 20.3815 29.75 17 29.75ZM17.0708 11.3333V11.475H16.9292V11.3333H17.0708Z" stroke="white" stroke-width="2" stroke-linecap="round" stroke-linejoin="round"/>
</svg>
