<svg width="119" height="119" viewBox="0 0 119 119" fill="none" xmlns="http://www.w3.org/2000/svg">
<path d="M59.5 54.5417V79.3333M59.5 104.125C53.6398 104.125 47.8369 102.971 42.4228 100.728C37.0086 98.4855 32.0892 95.1985 27.9454 91.0546C23.8015 86.9108 20.5145 81.9914 18.2719 76.5773C16.0293 71.1631 14.875 65.3602 14.875 59.5C14.875 53.6398 16.0293 47.8369 18.2719 42.4228C20.5145 37.0086 23.8015 32.0892 27.9454 27.9454C32.0892 23.8015 37.0086 20.5145 42.4228 18.2719C47.8369 16.0293 53.6398 14.875 59.5 14.875C71.3353 14.875 82.6858 19.5765 91.0546 27.9454C99.4234 36.3142 104.125 47.6647 104.125 59.5C104.125 71.3353 99.4234 82.6858 91.0546 91.0546C82.6858 99.4234 71.3353 104.125 59.5 104.125ZM59.7479 39.6667V40.1625H59.2521V39.6667H59.7479Z" stroke="#A2A2A2" stroke-width="7" stroke-linecap="round" stroke-linejoin="round"/>
</svg>
