<svg width="561" height="561" viewBox="0 0 561 561" fill="none" xmlns="http://www.w3.org/2000/svg">
<path d="M415.517 336.896L393.126 324.26L426.824 264.553C431.293 256.635 432.433 247.267 429.995 238.508C427.556 229.75 421.738 222.319 413.82 217.85L354.113 184.152L366.75 161.762C372.336 151.865 373.761 140.154 370.713 129.206C367.664 118.258 360.391 108.97 350.494 103.384C340.597 97.7982 328.887 96.3728 317.939 99.4213C306.991 102.47 297.702 109.742 292.116 119.64L279.479 142.03L219.773 108.332C211.855 103.863 202.486 102.723 193.728 105.161C184.97 107.6 177.539 113.418 173.07 121.336L141.057 178.058L163.447 190.694C185.837 203.331 193.64 231.353 181.003 253.743C168.366 276.133 140.345 283.935 117.955 271.299L95.5646 258.662L63.5515 315.383C59.0828 323.301 57.9425 332.67 60.3813 341.428C62.8201 350.186 68.6382 357.617 76.5559 362.086L133.277 394.099L145.914 371.709C158.551 349.319 186.572 341.516 208.963 354.153C231.353 366.79 239.155 394.811 226.519 417.201L213.882 439.591L270.603 471.605C278.521 476.073 287.889 477.214 296.648 474.775C305.406 472.336 312.837 466.518 317.306 458.6L351.004 398.893L373.394 411.53C383.291 417.116 395.002 418.541 405.95 415.493C416.898 412.444 426.186 405.172 431.772 395.274C437.358 385.377 438.783 373.667 435.735 362.719C432.686 351.771 425.414 342.482 415.517 336.896Z" fill="#FF9178" fill-opacity="0.18"/>
</svg>
