<svg width="149" height="149" viewBox="0 0 149 149" fill="none" xmlns="http://www.w3.org/2000/svg">
<circle cx="74.5" cy="74.5" r="74" fill="white" stroke="#D0D0D0"/>
<path d="M74 19.0833C68.1652 19.0833 62.5694 21.4187 58.4436 25.5758C54.3178 29.7328 52 35.371 52 41.25C52 47.1289 54.3178 52.7671 58.4436 56.9242C62.5694 61.0812 68.1652 63.4166 74 63.4166C79.8348 63.4166 85.4305 61.0812 89.5563 56.9242C93.6821 52.7671 96 47.1289 96 41.25C96 35.371 93.6821 29.7328 89.5563 25.5758C85.4305 21.4187 79.8348 19.0833 74 19.0833ZM101.5 74.5H46.5C42.1239 74.5 37.9271 76.2515 34.8327 79.3693C31.7384 82.4871 30 86.7158 30 91.125C30 103.494 35.049 113.402 43.332 120.108C51.483 126.702 62.417 129.917 74 129.917C85.583 129.917 96.517 126.702 104.668 120.108C112.94 113.402 118 103.494 118 91.125C118 86.7158 116.262 82.4871 113.167 79.3693C110.073 76.2515 105.876 74.5 101.5 74.5Z" fill="black"/>
</svg>
