<svg width="563" height="563" viewBox="0 0 563 563" fill="none" xmlns="http://www.w3.org/2000/svg">
<path d="M138.659 233.077L162.505 244.398L132.316 307.986C128.312 316.418 127.823 326.096 130.955 334.889C134.087 343.682 140.583 350.871 149.015 354.874L212.604 385.063L201.283 408.909C196.279 419.449 195.667 431.546 199.582 442.537C203.496 453.529 211.617 462.515 222.158 467.52C232.698 472.524 244.795 473.136 255.786 469.221C266.778 465.306 275.764 457.185 280.768 446.645L292.089 422.799L355.677 452.988C364.11 456.991 373.787 457.481 382.58 454.349C391.373 451.217 398.562 444.721 402.566 436.288L431.245 375.88L407.4 364.559C383.554 353.238 373.534 325.105 384.855 301.259C396.176 277.414 424.309 267.394 448.154 278.715L472 290.035L500.679 229.627C504.683 221.194 505.172 211.517 502.04 202.724C498.909 193.93 492.412 186.741 483.98 182.738L423.571 154.059L412.25 177.904C400.929 201.75 372.796 211.77 348.95 200.449C325.105 189.128 315.085 160.995 326.406 137.149L337.727 113.304L277.318 84.6245C268.886 80.6212 259.208 80.1316 250.415 83.2635C241.622 86.3952 234.433 92.8919 230.429 101.324L200.241 164.912L176.395 153.592C165.855 148.588 153.758 147.976 142.766 151.89C131.775 155.805 122.788 163.926 117.784 174.466C112.78 185.007 112.168 197.103 116.083 208.095C119.998 219.087 128.119 228.073 138.659 233.077Z" fill="#FF9178" fill-opacity="0.18"/>
</svg>
