<svg width="685" height="685" viewBox="0 0 685 685" fill="none" xmlns="http://www.w3.org/2000/svg">
<path d="M476.251 450.539L455.117 428.913L512.788 372.557C520.436 365.084 524.801 354.879 524.925 344.187C525.048 333.495 520.919 323.192 513.446 315.544L457.09 257.874L478.717 236.74C488.276 227.399 493.734 214.643 493.888 201.278C494.042 187.913 488.88 175.034 479.539 165.474C470.198 155.915 457.441 150.458 444.076 150.303C430.711 150.149 417.832 155.311 408.273 164.652L386.646 185.785L330.291 128.115C322.818 120.467 312.613 116.101 301.921 115.978C291.229 115.855 280.926 119.984 273.278 127.457L218.491 180.995L239.624 202.621C260.757 224.248 260.363 258.455 238.736 279.589C217.11 300.722 182.902 300.327 161.769 278.701L140.635 257.074L85.8484 310.612C78.2008 318.085 73.8351 328.29 73.7118 338.982C73.5884 349.674 77.7176 359.977 85.1907 367.625L138.728 422.412L160.355 401.279C181.981 380.145 216.189 380.54 237.322 402.167C258.456 423.793 258.061 458.001 236.434 479.134L214.808 500.267L268.346 555.054C275.819 562.702 286.024 567.068 296.716 567.191C307.408 567.314 317.711 563.185 325.359 555.712L383.029 499.357L404.162 520.983C413.504 530.543 426.26 536 439.625 536.154C452.99 536.308 465.869 531.147 475.429 521.805C484.988 512.464 490.445 499.707 490.599 486.342C490.754 472.977 485.592 460.099 476.251 450.539Z" fill="#6FA8C7" fill-opacity="0.18"/>
</svg>
