<svg width="578" height="578" viewBox="0 0 578 578" fill="none" xmlns="http://www.w3.org/2000/svg">
<path d="M184.164 391.616L204.457 375.829L246.553 429.943C252.136 437.119 260.34 441.784 269.361 442.91C278.383 444.037 287.483 441.534 294.659 435.952L348.772 393.855L364.559 414.148C371.537 423.118 381.792 428.948 393.069 430.357C404.346 431.765 415.72 428.636 424.69 421.658C433.66 414.68 439.491 404.425 440.899 393.148C442.308 381.871 439.179 370.497 432.201 361.527L416.415 341.234L470.529 299.137C477.704 293.555 482.369 285.351 483.496 276.329C484.623 267.308 482.119 258.208 476.537 251.032L436.545 199.624L416.253 215.41C395.96 231.197 367.097 227.591 351.31 207.299C335.524 187.006 339.129 158.143 359.422 142.357L379.715 126.57L339.723 75.1622C334.141 67.9863 325.936 63.3218 316.915 62.195C307.893 61.0682 298.794 63.5713 291.618 69.1537L240.209 109.146L255.996 129.438C271.782 149.731 268.177 178.594 247.884 194.38C227.591 210.167 198.728 206.561 182.942 186.269L167.156 165.976L115.748 205.968C108.572 211.55 103.907 219.755 102.78 228.776C101.654 237.798 104.157 246.897 109.739 254.073L151.836 308.187L131.543 323.973C122.573 330.951 116.743 341.207 115.334 352.484C113.925 363.76 117.054 375.135 124.032 384.105C131.01 393.075 141.266 398.905 152.543 400.314C163.819 401.722 175.194 398.594 184.164 391.616Z" fill="#F6BF22" fill-opacity="0.18"/>
</svg>
