<svg width="70" height="70" viewBox="0 0 70 70" fill="none" xmlns="http://www.w3.org/2000/svg">
<circle cx="35" cy="35" r="35" fill="black"/>
<path fill-rule="evenodd" clip-rule="evenodd" d="M44.8859 33.5095C45.4063 34.0305 45.6986 34.7367 45.6986 35.4731C45.6986 36.2094 45.4063 36.9157 44.8859 37.4367L34.4083 47.918C33.887 48.4391 33.1801 48.7317 32.4431 48.7315C31.7061 48.7313 30.9993 48.4384 30.4783 47.9171C29.9572 47.3958 29.6646 46.6889 29.6648 45.9519C29.665 45.2149 29.9579 44.5081 30.4792 43.9871L38.9932 35.4731L30.4792 26.9591C29.9728 26.4353 29.6924 25.7335 29.6983 25.0049C29.7043 24.2763 29.9962 23.5793 30.5112 23.0638C31.0261 22.5484 31.723 22.2558 32.4515 22.2491C33.1801 22.2425 33.8821 22.5222 34.4064 23.0281L44.8878 33.5076L44.8859 33.5095Z" fill="white"/>
</svg>
