<svg width="20" height="20" viewBox="0 0 20 20" fill="none" xmlns="http://www.w3.org/2000/svg">
<path fill-rule="evenodd" clip-rule="evenodd" d="M14.1355 14.9974C12.815 16.1216 11.1033 16.8 9.23317 16.8C5.05422 16.8 1.6665 13.4123 1.6665 9.23333C1.6665 5.05438 5.05422 1.66667 9.23317 1.66667C13.4121 1.66667 16.7998 5.05438 16.7998 9.23333C16.7998 11.0922 16.1296 12.7944 15.0175 14.1117L18.6495 17.7437L17.7657 18.6275L14.1355 14.9974ZM15.5498 9.23333C15.5498 12.7219 12.7218 15.55 9.23317 15.55C5.74457 15.55 2.9165 12.7219 2.9165 9.23333C2.9165 5.74473 5.74457 2.91667 9.23317 2.91667C12.7218 2.91667 15.5498 5.74473 15.5498 9.23333Z" fill="black" fill-opacity="0.7"/>
</svg>
