<svg width="37" height="37" viewBox="0 0 37 37" fill="none" xmlns="http://www.w3.org/2000/svg">
<path fill-rule="evenodd" clip-rule="evenodd" d="M16.5025 11.9771C16.9267 11.5533 17.5018 11.3153 18.1014 11.3153C18.701 11.3153 19.2761 11.5533 19.7004 11.9771L28.2352 20.5088C28.6594 20.9333 28.8977 21.5089 28.8976 22.1091C28.8974 22.7092 28.6589 23.2847 28.2344 23.709C27.8099 24.1333 27.2343 24.3715 26.6342 24.3714C26.034 24.3713 25.4585 24.1327 25.0342 23.7082L18.1014 16.7754L11.1686 23.7082C10.7421 24.1206 10.1706 24.349 9.57733 24.3441C8.98406 24.3392 8.41644 24.1015 7.99673 23.6822C7.57701 23.2629 7.33878 22.6955 7.33335 22.1022C7.32791 21.5089 7.55571 20.9373 7.96768 20.5103L16.501 11.9756L16.5025 11.9771Z" fill="currentColor"/>
</svg>
