<svg width="60" height="60" viewBox="0 0 60 60" fill="none" xmlns="http://www.w3.org/2000/svg">
<path d="M10.3125 52.5C8.57202 52.5 6.90282 51.8086 5.67211 50.5779C4.4414 49.3472 3.75 47.678 3.75 45.9375V36.5625C3.75 35.8166 4.04632 35.1012 4.57376 34.5738C5.10121 34.0463 5.81658 33.75 6.5625 33.75C7.30842 33.75 8.02379 34.0463 8.55124 34.5738C9.07868 35.1012 9.375 35.8166 9.375 36.5625V45.9375C9.375 46.455 9.795 46.875 10.3125 46.875H49.6875C49.9361 46.875 50.1746 46.7762 50.3504 46.6004C50.5262 46.4246 50.625 46.1861 50.625 45.9375V36.5625C50.625 35.8166 50.9213 35.1012 51.4488 34.5738C51.9762 34.0463 52.6916 33.75 53.4375 33.75C54.1834 33.75 54.8988 34.0463 55.4262 34.5738C55.9537 35.1012 56.25 35.8166 56.25 36.5625V45.9375C56.25 47.678 55.5586 49.3472 54.3279 50.5779C53.0972 51.8086 51.428 52.5 49.6875 52.5H10.3125Z" fill="#959595"/>
<path d="M44.1752 17.7005C44.4362 17.9615 44.6432 18.2713 44.7845 18.6123C44.9257 18.9533 44.9985 19.3188 44.9985 19.688C44.9985 20.0571 44.9257 20.4226 44.7845 20.7636C44.6432 21.1046 44.4362 21.4145 44.1752 21.6755C43.9142 21.9365 43.6043 22.1435 43.2633 22.2847C42.9223 22.426 42.5568 22.4987 42.1877 22.4987C41.8186 22.4987 41.4531 22.426 41.1121 22.2847C40.7711 22.1435 40.4612 21.9365 40.2002 21.6755L32.8127 14.2917V35.6255C32.8127 36.3714 32.5164 37.0867 31.9889 37.6142C31.4615 38.1416 30.7461 38.438 30.0002 38.438C29.2543 38.438 28.5389 38.1416 28.0115 37.6142C27.484 37.0867 27.1877 36.3714 27.1877 35.6255V14.2917L19.8002 21.6755C19.5392 21.9365 19.2293 22.1435 18.8883 22.2847C18.5473 22.426 18.1818 22.4987 17.8127 22.4987C17.4436 22.4987 17.0781 22.426 16.7371 22.2847C16.3961 22.1435 16.0862 21.9365 15.8252 21.6755C15.5642 21.4145 15.3572 21.1046 15.2159 20.7636C15.0747 20.4226 15.002 20.0571 15.002 19.688C15.002 19.3188 15.0747 18.9533 15.2159 18.6123C15.3572 18.2713 15.5642 17.9615 15.8252 17.7005L28.0127 5.51296C28.54 4.98627 29.2549 4.69043 30.0002 4.69043C30.7455 4.69043 31.4604 4.98627 31.9877 5.51296L44.1752 17.7005Z" fill="#959595"/>
</svg>
