<svg width="34" height="34" viewBox="0 0 34 34" fill="none" xmlns="http://www.w3.org/2000/svg">
<path d="M30.8678 2.09656L31.7036 2.93239C32.8553 4.08556 32.6811 6.12981 31.3112 7.49831L14.0746 24.7349L8.4901 26.7777C7.78885 27.0356 7.10601 26.7012 6.96718 26.034C6.92041 25.7919 6.9425 25.5416 7.03093 25.3115L9.11343 19.6788L26.3018 2.48898C27.6718 1.12048 29.716 0.943393 30.8678 2.09656ZM13.3223 3.81073C13.5084 3.81073 13.6926 3.84737 13.8645 3.91856C14.0364 3.98976 14.1925 4.09411 14.3241 4.22566C14.4556 4.35721 14.56 4.51338 14.6312 4.68526C14.7024 4.85714 14.739 5.04135 14.739 5.22739C14.739 5.41343 14.7024 5.59765 14.6312 5.76953C14.56 5.94141 14.4556 6.09758 14.3241 6.22913C14.1925 6.36068 14.0364 6.46503 13.8645 6.53622C13.6926 6.60742 13.5084 6.64406 13.3223 6.64406H7.65568C6.90423 6.64406 6.18356 6.94257 5.65221 7.47392C5.12086 8.00528 4.82235 8.72595 4.82235 9.47739V26.4774C4.82235 27.2288 5.12086 27.9495 5.65221 28.4809C6.18356 29.0122 6.90423 29.3107 7.65568 29.3107H24.6557C25.4071 29.3107 26.1278 29.0122 26.6592 28.4809C27.1905 27.9495 27.489 27.2288 27.489 26.4774V20.8107C27.489 20.435 27.6383 20.0747 27.9039 19.809C28.1696 19.5433 28.53 19.3941 28.9057 19.3941C29.2814 19.3941 29.6417 19.5433 29.9074 19.809C30.1731 20.0747 30.3223 20.435 30.3223 20.8107V26.4774C30.3223 27.9803 29.7253 29.4216 28.6626 30.4843C27.5999 31.547 26.1586 32.1441 24.6557 32.1441H7.65568C6.15279 32.1441 4.71145 31.547 3.64874 30.4843C2.58604 29.4216 1.98901 27.9803 1.98901 26.4774V9.47739C1.98901 7.9745 2.58604 6.53316 3.64874 5.47045C4.71145 4.40775 6.15279 3.81073 7.65568 3.81073H13.3223Z" fill="#979797"/>
</svg>
